<svg width="71" height="24" viewBox="0 0 71 24" fill="none" xmlns="http://www.w3.org/2000/svg">
<path fill-rule="evenodd" clip-rule="evenodd" d="M13.7315 18.0104C9.41332 21.9426 3.96948 18.1287 4.19895 13.7899C4.3696 10.565 7.68895 7.16123 11.9123 8.83354L13.4486 5.27594C4.29133 2.2923 -0.575938 10.1234 0.463828 15.3983C2.14503 23.9257 11.3387 25.5295 16.3997 20.7998L13.7315 18.0104ZM18.1582 11.2793L18.2391 23.0839H21.837L21.8774 11.2793C21.9995 7.85034 18.4748 7.13585 16.5815 6.38769L15.0453 9.90485L18.1582 11.2793ZM29.7029 5.41813C25.1073 7.46647 22.407 13.6738 25.8797 19.1219L42.9801 11.845C41.1741 5.24914 34.5794 3.24455 29.703 5.41813H29.7029ZM28.1233 14.6547C28.0581 8.23527 34.8365 6.55087 37.9065 10.4503L28.1233 14.6547ZM37.6035 17.9902C35.6606 19.8658 33.3698 20.1084 30.7309 18.7178L28.7096 21.9519C33.2535 24.2134 36.2586 23.9844 40.3928 20.7796L37.6035 17.9902ZM44.7589 0.283447L44.7992 18.7583C44.7883 22.1827 48.3274 22.6485 50.0547 23.4478L51.4696 19.9306L48.3972 18.5562L48.3162 0.283447H44.7589ZM53.0059 9.86406C49.04 18.8434 59.1683 27.9568 67.8828 20.9814L65.3359 18.1516C61.7664 22.0463 53.6274 17.6129 56.5633 11.6429L53.0059 9.86406Z" fill="white"/>
<path fill-rule="evenodd" clip-rule="evenodd" d="M57.8367 9.92498C62.1159 6.0057 69.1232 10.2371 66.6094 16.4337L70.1265 18.0912C74.3493 7.44309 62.2618 0.718753 55.2091 7.01428L57.8367 9.92498ZM20.0381 5.09365C21.4558 5.09365 22.6052 3.95344 22.6052 2.54688C22.6052 1.14033 21.4558 0 20.0381 0C18.6203 0 17.4709 1.14021 17.4709 2.54688C17.4709 3.95356 18.6203 5.09365 20.0381 5.09365Z" fill="#01AEF0"/>
</svg>
