<svg width="95" height="23" viewBox="0 0 95 23" fill="none" xmlns="http://www.w3.org/2000/svg">
<path fill-rule="evenodd" clip-rule="evenodd" d="M1.3499 1.02879C1.10259 1.29459 0.960449 1.70369 0.960449 2.23529V21.144C0.960449 21.6756 1.10259 22.0847 1.35915 22.3412L1.42617 22.3978L12.0211 11.8029V11.5648L1.41693 0.972168L1.3499 1.02879V1.02879Z" fill="url(#paint0_linear_3807_338)"/>
<path fill-rule="evenodd" clip-rule="evenodd" d="M15.5459 15.3483L12.012 11.8132V11.5659L15.5471 8.03076L15.6234 8.07814L19.8045 10.4542C21.0017 11.129 21.0017 12.2408 19.8045 12.9249L15.6234 15.3009C15.6222 15.3009 15.5459 15.3483 15.5459 15.3483V15.3483Z" fill="url(#paint1_linear_3807_338)"/>
<path fill-rule="evenodd" clip-rule="evenodd" d="M15.6221 15.3011L12.0118 11.6897L1.34985 22.3517C1.73931 22.77 2.39456 22.8174 3.12724 22.4083L15.6221 15.3011Z" fill="url(#paint2_linear_3807_338)"/>
<path fill-rule="evenodd" clip-rule="evenodd" d="M15.6221 8.07931L3.12724 0.981335C2.39571 0.562992 1.73931 0.619618 1.34985 1.03796L12.0107 11.6895L15.6221 8.07931Z" fill="url(#paint3_linear_3807_338)"/>
<path opacity="0.2" fill-rule="evenodd" clip-rule="evenodd" d="M15.5458 15.2247L3.13651 22.2753C2.44313 22.674 1.82486 22.6463 1.42616 22.2846L1.35913 22.3516L1.42616 22.4082C1.82486 22.7688 2.44313 22.7977 3.13651 22.399L15.6314 15.301L15.5458 15.2247V15.2247Z" fill="black"/>
<path opacity="0.12" fill-rule="evenodd" clip-rule="evenodd" d="M19.8033 12.8014L15.5366 15.2248L15.6129 15.3011L19.794 12.9251C20.3926 12.583 20.6873 12.1369 20.6873 11.6897C20.6492 12.0988 20.3453 12.4882 19.8033 12.8014V12.8014Z" fill="black"/>
<path opacity="0.25" fill-rule="evenodd" clip-rule="evenodd" d="M3.12728 1.10503L19.8032 10.579C20.3452 10.8829 20.6492 11.2816 20.6966 11.6907C20.6966 11.2447 20.4019 10.7974 19.8032 10.4554L3.12728 0.981377C1.93004 0.297235 0.960449 0.866969 0.960449 2.23525V2.35891C0.960449 0.990623 1.93004 0.430135 3.12728 1.10503Z" fill="white"/>
<path fill-rule="evenodd" clip-rule="evenodd" d="M24.7667 11.0898C24.7667 8.06087 27.3126 5.59473 30.3415 5.59473C32.0161 5.59473 33.2075 6.25229 34.1066 7.10862L33.0481 8.16719C32.4055 7.56395 31.5342 7.09591 30.3404 7.09591C28.1285 7.09591 26.3996 8.87676 26.3996 11.0887C26.3996 13.3006 28.1285 15.0837 30.3392 15.0837C31.7734 15.0837 32.5893 14.5082 33.1128 13.9836C33.5415 13.5548 33.8224 12.9389 33.931 12.0941H30.3415V10.5964H35.394C35.4472 10.8645 35.4749 11.1857 35.4749 11.5336C35.4749 12.658 35.1664 14.0529 34.1737 15.0456C33.2075 16.051 31.9756 16.5872 30.3404 16.5872C27.3103 16.5872 24.7644 14.1234 24.7644 11.0921L24.7667 11.0898ZM39.559 9.5089C37.6025 9.5089 36.0054 10.9974 36.0054 13.0463C36.0054 15.0849 37.6013 16.5838 39.559 16.5838C41.5166 16.5838 43.1103 15.0826 43.1103 13.0452C43.1103 10.9962 41.5155 9.50774 39.559 9.5089V9.5089ZM39.559 15.1924C38.4877 15.1924 37.562 14.3083 37.562 13.0475C37.562 11.774 38.4865 10.9026 39.559 10.9026C40.6303 10.9026 41.5548 11.7728 41.5548 13.0475C41.5548 14.3071 40.6314 15.1924 39.559 15.1924ZM47.3076 9.5089C45.3511 9.5089 43.7563 10.9974 43.7563 13.0463C43.7563 15.0849 45.3511 16.5838 47.3076 16.5838C49.2641 16.5838 50.8589 15.0826 50.8589 13.0452C50.8589 10.9962 49.2652 9.50774 47.3076 9.5089V9.5089ZM47.3076 15.1924C46.2363 15.1924 45.3106 14.3083 45.3106 13.0475C45.3106 11.774 46.2351 10.9026 47.3076 10.9026C48.3789 10.9026 49.3045 11.7728 49.3045 13.0475C49.3045 14.3071 48.3789 15.1924 47.3076 15.1924ZM56.8174 9.72385V10.2994H56.7642C56.4164 9.88217 55.7461 9.50774 54.9025 9.50774C53.1332 9.50774 51.5095 11.0632 51.5095 13.0614C51.5095 15.0433 53.132 16.5861 54.9025 16.5861C55.7461 16.5861 56.4164 16.2116 56.7642 15.7829H56.8174V16.2914C56.8174 17.6446 56.0939 18.3692 54.9279 18.3692C53.9756 18.3692 53.3863 17.6851 53.1447 17.1107L51.7903 17.6735C52.1786 18.6108 53.2118 19.7641 54.9267 19.7641C56.748 19.7641 58.2897 18.6905 58.2897 16.0776V9.72269L56.8174 9.72385ZM55.0354 15.1924C53.9641 15.1924 53.0638 14.2933 53.0638 13.0614C53.0638 11.8156 53.9629 10.9038 55.0354 10.9038C56.0939 10.9038 56.9249 11.8144 56.9249 13.0614C56.926 14.2933 56.0951 15.1924 55.0354 15.1924ZM59.3633 5.97031H60.9188V16.3711H59.3633V5.97031ZM65.1819 15.1924C64.3915 15.1924 63.8275 14.8295 63.4681 14.1211L68.1993 12.1623L68.0364 11.7601C67.7429 10.9708 66.8438 9.5089 65.0074 9.5089C63.185 9.5089 61.6699 10.9431 61.6699 13.0475C61.6699 15.0294 63.1711 16.5849 65.1819 16.5849C66.8045 16.5849 67.7428 15.5945 68.1311 15.0167L66.9247 14.2135C66.5213 14.8041 65.9712 15.1935 65.1819 15.1924V15.1924ZM65.0606 10.876C65.6766 10.876 66.1989 11.1846 66.3734 11.626L63.2093 12.94C63.17 11.5729 64.269 10.876 65.0606 10.876V10.876ZM75.0246 5.97031H71.3057V16.3711H72.8577V12.4315H75.0257C76.7465 12.4315 78.4383 11.1857 78.4383 9.20034C78.4383 7.21841 76.7476 5.97147 75.028 5.97147L75.0246 5.97031ZM75.065 10.9835H72.8577V7.41718H75.065C76.2253 7.41718 76.8863 8.37983 76.8863 9.20034C76.8863 10.007 76.2253 10.9835 75.065 10.9835V10.9835ZM80.8456 16.3711V5.97031H79.2935V16.3711H80.8456ZM87.8176 16.3526V12.3657C87.8176 10.5189 86.4377 9.48925 84.6569 9.48925C83.5347 9.48925 82.371 9.98502 81.8891 11.0817L83.2666 11.6561C83.5613 11.0817 84.1091 10.8934 84.6858 10.8934C85.4878 10.8934 86.3037 11.3753 86.3164 12.2328V12.3402C86.0356 12.1796 85.4346 11.9381 84.6973 11.9381C83.2123 11.9381 81.7007 12.7539 81.7007 14.2794C81.7007 15.672 82.9188 16.5676 84.2836 16.5676C85.3283 16.5676 85.9027 16.0995 86.2632 15.5518H86.3164V16.3549H87.8164L87.8176 16.3526ZM84.472 15.19C83.9635 15.19 83.2539 14.9358 83.2539 14.3083C83.2539 13.5051 84.138 13.1954 84.9007 13.1954C85.5837 13.1954 85.9038 13.3422 86.3198 13.5433C86.2008 14.477 85.4115 15.1785 84.472 15.19V15.19ZM93.2757 9.71691L91.496 14.2251H91.4428L89.5961 9.71691H87.9239L90.6928 16.0198L89.113 19.5249H90.7321L94.9999 9.71691H93.2757Z" fill="white"/>
<defs>
<linearGradient id="paint0_linear_3807_338" x1="11.0698" y1="2.03204" x2="-5.90154" y2="6.55405" gradientUnits="userSpaceOnUse">
<stop stop-color="#00A0FF"/>
<stop offset="0.007" stop-color="#00A1FF"/>
<stop offset="0.26" stop-color="#00BEFF"/>
<stop offset="0.512" stop-color="#00D2FF"/>
<stop offset="0.76" stop-color="#00DFFF"/>
<stop offset="1" stop-color="#00E3FF"/>
</linearGradient>
<linearGradient id="paint1_linear_3807_338" x1="21.3624" y1="11.6901" x2="0.669547" y2="11.6901" gradientUnits="userSpaceOnUse">
<stop stop-color="#FFE000"/>
<stop offset="0.409" stop-color="#FFBD00"/>
<stop offset="0.775" stop-color="#FFA500"/>
<stop offset="1" stop-color="#FF9C00"/>
</linearGradient>
<linearGradient id="paint2_linear_3807_338" x1="13.6589" y1="13.6543" x2="0.0343208" y2="36.5854" gradientUnits="userSpaceOnUse">
<stop stop-color="#FF3A44"/>
<stop offset="1" stop-color="#C31162"/>
</linearGradient>
<linearGradient id="paint3_linear_3807_338" x1="-1.33403" y1="-5.26123" x2="4.74432" y2="4.98017" gradientUnits="userSpaceOnUse">
<stop stop-color="#32A071"/>
<stop offset="0.069" stop-color="#2DA771"/>
<stop offset="0.476" stop-color="#15CF74"/>
<stop offset="0.801" stop-color="#06E775"/>
<stop offset="1" stop-color="#00F076"/>
</linearGradient>
</defs>
</svg>
